<svg width="281" height="281" viewBox="0 0 281 281" fill="none" xmlns="http://www.w3.org/2000/svg">
<circle cx="140.5" cy="140.5" r="140.5" fill="#EBE5D8"/>
<path d="M173 142.5C173 186.407 154 204.5 134.5 222C116.5 205 96 186.407 96 142.5C96 98.5934 113 77.5 134.5 63C151 76.5 173 98.5934 173 142.5Z" fill="#354739"/>
<path d="M218.662 194.662C187.615 225.709 161.386 225.068 135.223 223.654C134.516 198.905 133.168 171.262 164.215 140.215C195.261 109.168 222.197 106.274 247.653 111.224C249.775 132.437 249.709 163.616 218.662 194.662Z" fill="#506955"/>
<path d="M110.662 140.215C141.709 171.262 141.068 197.491 139.654 223.654C114.905 224.361 87.2617 225.709 56.215 194.662C25.1683 163.616 22.2739 136.679 27.2236 111.224C48.4368 109.102 79.6155 109.168 110.662 140.215Z" fill="#506955"/>
</svg>
