<svg width="275" height="188" viewBox="0 0 275 188" fill="none" xmlns="http://www.w3.org/2000/svg">
<path d="M173 79.5C173 123.407 154 141.5 134.5 159C116.5 142 96 123.407 96 79.5C96 35.5934 113 14.5 134.5 0C151 13.5 173 35.5934 173 79.5Z" fill="#354739"/>
<path d="M218.662 131.662C187.615 162.709 161.386 162.068 135.223 160.654C134.516 135.905 133.168 108.262 164.215 77.215C195.261 46.1683 222.197 43.2739 247.653 48.2236C249.775 69.4368 249.709 100.616 218.662 131.662Z" fill="#506955"/>
<path d="M110.662 77.215C141.709 108.262 141.068 134.491 139.654 160.654C114.905 161.361 87.2617 162.709 56.215 131.662C25.1683 100.616 22.2739 73.6795 27.2236 48.2236C48.4368 46.1023 79.6155 46.1683 110.662 77.215Z" fill="#506955"/>
<path d="M38.84 118H34.28L20.56 97.24V118H16V90.16H20.56L34.28 110.88V90.16H38.84V118ZM43.3081 106.88C43.3081 104.667 43.7615 102.707 44.6681 101C45.6015 99.2933 46.8548 97.9733 48.4281 97.04C50.0281 96.08 51.7881 95.6 53.7081 95.6C55.4415 95.6 56.9481 95.9467 58.2281 96.64C59.5348 97.3067 60.5748 98.1467 61.3481 99.16V95.96H65.9481V118H61.3481V114.72C60.5748 115.76 59.5215 116.627 58.1881 117.32C56.8548 118.013 55.3348 118.36 53.6281 118.36C51.7348 118.36 50.0015 117.88 48.4281 116.92C46.8548 115.933 45.6015 114.573 44.6681 112.84C43.7615 111.08 43.3081 109.093 43.3081 106.88ZM61.3481 106.96C61.3481 105.44 61.0281 104.12 60.3881 103C59.7748 101.88 58.9615 101.027 57.9481 100.44C56.9348 99.8533 55.8415 99.56 54.6681 99.56C53.4948 99.56 52.4015 99.8533 51.3881 100.44C50.3748 101 49.5481 101.84 48.9081 102.96C48.2948 104.053 47.9881 105.36 47.9881 106.88C47.9881 108.4 48.2948 109.733 48.9081 110.88C49.5481 112.027 50.3748 112.907 51.3881 113.52C52.4281 114.107 53.5215 114.4 54.6681 114.4C55.8415 114.4 56.9348 114.107 57.9481 113.52C58.9615 112.933 59.7748 112.08 60.3881 110.96C61.0281 109.813 61.3481 108.48 61.3481 106.96ZM77.2575 99.68V111.88C77.2575 112.707 77.4442 113.307 77.8175 113.68C78.2175 114.027 78.8842 114.2 79.8175 114.2H82.6175V118H79.0175C76.9642 118 75.3908 117.52 74.2975 116.56C73.2042 115.6 72.6575 114.04 72.6575 111.88V99.68H70.0575V95.96H72.6575V90.48H77.2575V95.96H82.6175V99.68H77.2575ZM106.78 95.96V118H102.22V115.4C101.5 116.307 100.554 117.027 99.3803 117.56C98.2336 118.067 97.007 118.32 95.7003 118.32C93.967 118.32 92.407 117.96 91.0203 117.24C89.6603 116.52 88.5803 115.453 87.7803 114.04C87.007 112.627 86.6203 110.92 86.6203 108.92V95.96H91.1403V108.24C91.1403 110.213 91.6336 111.733 92.6203 112.8C93.607 113.84 94.9536 114.36 96.6603 114.36C98.367 114.36 99.7136 113.84 100.7 112.8C101.714 111.733 102.22 110.213 102.22 108.24V95.96H106.78ZM117.357 99.16C118.024 98.04 118.904 97.1733 119.997 96.56C121.117 95.92 122.437 95.6 123.957 95.6V100.32H122.797C121.01 100.32 119.65 100.773 118.717 101.68C117.81 102.587 117.357 104.16 117.357 106.4V118H112.797V95.96H117.357V99.16ZM126.628 106.88C126.628 104.667 127.082 102.707 127.988 101C128.922 99.2933 130.175 97.9733 131.748 97.04C133.348 96.08 135.108 95.6 137.028 95.6C138.762 95.6 140.268 95.9467 141.548 96.64C142.855 97.3067 143.895 98.1467 144.668 99.16V95.96H149.268V118H144.668V114.72C143.895 115.76 142.842 116.627 141.508 117.32C140.175 118.013 138.655 118.36 136.948 118.36C135.055 118.36 133.322 117.88 131.748 116.92C130.175 115.933 128.922 114.573 127.988 112.84C127.082 111.08 126.628 109.093 126.628 106.88ZM144.668 106.96C144.668 105.44 144.348 104.12 143.708 103C143.095 101.88 142.282 101.027 141.268 100.44C140.255 99.8533 139.162 99.56 137.988 99.56C136.815 99.56 135.722 99.8533 134.708 100.44C133.695 101 132.868 101.84 132.228 102.96C131.615 104.053 131.308 105.36 131.308 106.88C131.308 108.4 131.615 109.733 132.228 110.88C132.868 112.027 133.695 112.907 134.708 113.52C135.748 114.107 136.842 114.4 137.988 114.4C139.162 114.4 140.255 114.107 141.268 113.52C142.282 112.933 143.095 112.08 143.708 110.96C144.348 109.813 144.668 108.48 144.668 106.96ZM159.818 88.4V118H155.258V88.4H159.818ZM185.355 118.28C183.489 118.28 181.809 117.96 180.315 117.32C178.822 116.653 177.649 115.72 176.795 114.52C175.942 113.32 175.515 111.92 175.515 110.32H180.395C180.502 111.52 180.969 112.507 181.795 113.28C182.649 114.053 183.835 114.44 185.355 114.44C186.929 114.44 188.155 114.067 189.035 113.32C189.915 112.547 190.355 111.56 190.355 110.36C190.355 109.427 190.075 108.667 189.515 108.08C188.982 107.493 188.302 107.04 187.475 106.72C186.675 106.4 185.555 106.053 184.115 105.68C182.302 105.2 180.822 104.72 179.675 104.24C178.555 103.733 177.595 102.96 176.795 101.92C175.995 100.88 175.595 99.4933 175.595 97.76C175.595 96.16 175.995 94.76 176.795 93.56C177.595 92.36 178.715 91.44 180.155 90.8C181.595 90.16 183.262 89.84 185.155 89.84C187.849 89.84 190.049 90.52 191.755 91.88C193.489 93.2133 194.449 95.0533 194.635 97.4H189.595C189.515 96.3867 189.035 95.52 188.155 94.8C187.275 94.08 186.115 93.72 184.675 93.72C183.369 93.72 182.302 94.0533 181.475 94.72C180.649 95.3867 180.235 96.3467 180.235 97.6C180.235 98.4533 180.489 99.16 180.995 99.72C181.529 100.253 182.195 100.68 182.995 101C183.795 101.32 184.889 101.667 186.275 102.04C188.115 102.547 189.609 103.053 190.755 103.56C191.929 104.067 192.915 104.853 193.715 105.92C194.542 106.96 194.955 108.36 194.955 110.12C194.955 111.533 194.569 112.867 193.795 114.12C193.049 115.373 191.942 116.387 190.475 117.16C189.035 117.907 187.329 118.28 185.355 118.28ZM209.056 107L219.216 118H213.056L204.896 108.52V118H200.336V88.4H204.896V105.6L212.896 95.96H219.216L209.056 107ZM224.804 93.04C223.978 93.04 223.284 92.76 222.724 92.2C222.164 91.64 221.884 90.9467 221.884 90.12C221.884 89.2933 222.164 88.6 222.724 88.04C223.284 87.48 223.978 87.2 224.804 87.2C225.604 87.2 226.284 87.48 226.844 88.04C227.404 88.6 227.684 89.2933 227.684 90.12C227.684 90.9467 227.404 91.64 226.844 92.2C226.284 92.76 225.604 93.04 224.804 93.04ZM227.044 95.96V118H222.484V95.96H227.044ZM244.151 95.6C245.885 95.6 247.431 95.96 248.791 96.68C250.178 97.4 251.258 98.4667 252.031 99.88C252.805 101.293 253.191 103 253.191 105V118H248.671V105.68C248.671 103.707 248.178 102.2 247.191 101.16C246.205 100.093 244.858 99.56 243.151 99.56C241.445 99.56 240.085 100.093 239.071 101.16C238.085 102.2 237.591 103.707 237.591 105.68V118H233.031V95.96H237.591V98.48C238.338 97.5733 239.285 96.8667 240.431 96.36C241.605 95.8533 242.845 95.6 244.151 95.6Z" fill="#EBE5D8"/>
</svg>
