<svg width="501" height="188" viewBox="0 0 501 188" fill="none" xmlns="http://www.w3.org/2000/svg">
<path d="M173 79.5C173 123.407 154 141.5 134.5 159C116.5 142 96 123.407 96 79.5C96 35.5934 113 14.5 134.5 0C151 13.5 173 35.5934 173 79.5Z" fill="#354739"/>
<path d="M218.662 131.662C187.615 162.709 161.386 162.068 135.223 160.654C134.516 135.905 133.168 108.262 164.215 77.215C195.261 46.1683 222.197 43.2739 247.653 48.2236C249.775 69.4368 249.709 100.616 218.662 131.662Z" fill="#506955"/>
<path d="M110.662 77.215C141.709 108.262 141.068 134.491 139.654 160.654C114.905 161.361 87.2617 162.709 56.215 131.662C25.1683 100.616 22.2739 73.6795 27.2236 48.2236C48.4368 46.1023 79.6155 46.1683 110.662 77.215Z" fill="#506955"/>
<path d="M282.84 118H278.28L264.56 97.24V118H260V90.16H264.56L278.28 110.88V90.16H282.84V118ZM287.308 106.88C287.308 104.667 287.761 102.707 288.668 101C289.601 99.2933 290.855 97.9733 292.428 97.04C294.028 96.08 295.788 95.6 297.708 95.6C299.441 95.6 300.948 95.9467 302.228 96.64C303.535 97.3067 304.575 98.1467 305.348 99.16V95.96H309.948V118H305.348V114.72C304.575 115.76 303.521 116.627 302.188 117.32C300.855 118.013 299.335 118.36 297.628 118.36C295.735 118.36 294.001 117.88 292.428 116.92C290.855 115.933 289.601 114.573 288.668 112.84C287.761 111.08 287.308 109.093 287.308 106.88ZM305.348 106.96C305.348 105.44 305.028 104.12 304.388 103C303.775 101.88 302.961 101.027 301.948 100.44C300.935 99.8533 299.841 99.56 298.668 99.56C297.495 99.56 296.401 99.8533 295.388 100.44C294.375 101 293.548 101.84 292.908 102.96C292.295 104.053 291.988 105.36 291.988 106.88C291.988 108.4 292.295 109.733 292.908 110.88C293.548 112.027 294.375 112.907 295.388 113.52C296.428 114.107 297.521 114.4 298.668 114.4C299.841 114.4 300.935 114.107 301.948 113.52C302.961 112.933 303.775 112.08 304.388 110.96C305.028 109.813 305.348 108.48 305.348 106.96ZM321.258 99.68V111.88C321.258 112.707 321.444 113.307 321.818 113.68C322.218 114.027 322.884 114.2 323.818 114.2H326.618V118H323.018C320.964 118 319.391 117.52 318.298 116.56C317.204 115.6 316.658 114.04 316.658 111.88V99.68H314.058V95.96H316.658V90.48H321.258V95.96H326.618V99.68H321.258ZM350.78 95.96V118H346.22V115.4C345.5 116.307 344.554 117.027 343.38 117.56C342.234 118.067 341.007 118.32 339.7 118.32C337.967 118.32 336.407 117.96 335.02 117.24C333.66 116.52 332.58 115.453 331.78 114.04C331.007 112.627 330.62 110.92 330.62 108.92V95.96H335.14V108.24C335.14 110.213 335.634 111.733 336.62 112.8C337.607 113.84 338.954 114.36 340.66 114.36C342.367 114.36 343.714 113.84 344.7 112.8C345.714 111.733 346.22 110.213 346.22 108.24V95.96H350.78ZM361.357 99.16C362.024 98.04 362.904 97.1733 363.997 96.56C365.117 95.92 366.437 95.6 367.957 95.6V100.32H366.797C365.01 100.32 363.65 100.773 362.717 101.68C361.81 102.587 361.357 104.16 361.357 106.4V118H356.797V95.96H361.357V99.16ZM370.628 106.88C370.628 104.667 371.082 102.707 371.988 101C372.922 99.2933 374.175 97.9733 375.748 97.04C377.348 96.08 379.108 95.6 381.028 95.6C382.762 95.6 384.268 95.9467 385.548 96.64C386.855 97.3067 387.895 98.1467 388.668 99.16V95.96H393.268V118H388.668V114.72C387.895 115.76 386.842 116.627 385.508 117.32C384.175 118.013 382.655 118.36 380.948 118.36C379.055 118.36 377.322 117.88 375.748 116.92C374.175 115.933 372.922 114.573 371.988 112.84C371.082 111.08 370.628 109.093 370.628 106.88ZM388.668 106.96C388.668 105.44 388.348 104.12 387.708 103C387.095 101.88 386.282 101.027 385.268 100.44C384.255 99.8533 383.162 99.56 381.988 99.56C380.815 99.56 379.722 99.8533 378.708 100.44C377.695 101 376.868 101.84 376.228 102.96C375.615 104.053 375.308 105.36 375.308 106.88C375.308 108.4 375.615 109.733 376.228 110.88C376.868 112.027 377.695 112.907 378.708 113.52C379.748 114.107 380.842 114.4 381.988 114.4C383.162 114.4 384.255 114.107 385.268 113.52C386.282 112.933 387.095 112.08 387.708 110.96C388.348 109.813 388.668 108.48 388.668 106.96ZM403.818 88.4V118H399.258V88.4H403.818ZM429.355 118.28C427.489 118.28 425.809 117.96 424.315 117.32C422.822 116.653 421.649 115.72 420.795 114.52C419.942 113.32 419.515 111.92 419.515 110.32H424.395C424.502 111.52 424.969 112.507 425.795 113.28C426.649 114.053 427.835 114.44 429.355 114.44C430.929 114.44 432.155 114.067 433.035 113.32C433.915 112.547 434.355 111.56 434.355 110.36C434.355 109.427 434.075 108.667 433.515 108.08C432.982 107.493 432.302 107.04 431.475 106.72C430.675 106.4 429.555 106.053 428.115 105.68C426.302 105.2 424.822 104.72 423.675 104.24C422.555 103.733 421.595 102.96 420.795 101.92C419.995 100.88 419.595 99.4933 419.595 97.76C419.595 96.16 419.995 94.76 420.795 93.56C421.595 92.36 422.715 91.44 424.155 90.8C425.595 90.16 427.262 89.84 429.155 89.84C431.849 89.84 434.049 90.52 435.755 91.88C437.489 93.2133 438.449 95.0533 438.635 97.4H433.595C433.515 96.3867 433.035 95.52 432.155 94.8C431.275 94.08 430.115 93.72 428.675 93.72C427.369 93.72 426.302 94.0533 425.475 94.72C424.649 95.3867 424.235 96.3467 424.235 97.6C424.235 98.4533 424.489 99.16 424.995 99.72C425.529 100.253 426.195 100.68 426.995 101C427.795 101.32 428.889 101.667 430.275 102.04C432.115 102.547 433.609 103.053 434.755 103.56C435.929 104.067 436.915 104.853 437.715 105.92C438.542 106.96 438.955 108.36 438.955 110.12C438.955 111.533 438.569 112.867 437.795 114.12C437.049 115.373 435.942 116.387 434.475 117.16C433.035 117.907 431.329 118.28 429.355 118.28ZM453.056 107L463.216 118H457.056L448.896 108.52V118H444.336V88.4H448.896V105.6L456.896 95.96H463.216L453.056 107ZM468.804 93.04C467.978 93.04 467.284 92.76 466.724 92.2C466.164 91.64 465.884 90.9467 465.884 90.12C465.884 89.2933 466.164 88.6 466.724 88.04C467.284 87.48 467.978 87.2 468.804 87.2C469.604 87.2 470.284 87.48 470.844 88.04C471.404 88.6 471.684 89.2933 471.684 90.12C471.684 90.9467 471.404 91.64 470.844 92.2C470.284 92.76 469.604 93.04 468.804 93.04ZM471.044 95.96V118H466.484V95.96H471.044ZM488.151 95.6C489.885 95.6 491.431 95.96 492.791 96.68C494.178 97.4 495.258 98.4667 496.031 99.88C496.805 101.293 497.191 103 497.191 105V118H492.671V105.68C492.671 103.707 492.178 102.2 491.191 101.16C490.205 100.093 488.858 99.56 487.151 99.56C485.445 99.56 484.085 100.093 483.071 101.16C482.085 102.2 481.591 103.707 481.591 105.68V118H477.031V95.96H481.591V98.48C482.338 97.5733 483.285 96.8667 484.431 96.36C485.605 95.8533 486.845 95.6 488.151 95.6Z" fill="#EBE5D8"/>
</svg>
