<svg width="275" height="218" viewBox="0 0 275 218" fill="none" xmlns="http://www.w3.org/2000/svg">
<path d="M173 79.5C173 123.407 154 141.5 134.5 159C116.5 142 96 123.407 96 79.5C96 35.5934 113 14.5 134.5 0C151 13.5 173 35.5934 173 79.5Z" fill="#354739"/>
<path d="M218.662 131.662C187.615 162.709 161.386 162.068 135.223 160.654C134.516 135.905 133.168 108.262 164.215 77.215C195.261 46.1683 222.197 43.2739 247.653 48.2236C249.775 69.4368 249.709 100.616 218.662 131.662Z" fill="#506955"/>
<path d="M110.662 77.215C141.709 108.262 141.068 134.491 139.654 160.654C114.905 161.361 87.2617 162.709 56.215 131.662C25.1683 100.616 22.2739 73.6795 27.2236 48.2236C48.4368 46.1023 79.6155 46.1683 110.662 77.215Z" fill="#506955"/>
<path d="M38.84 202H34.28L20.56 181.24V202H16V174.16H20.56L34.28 194.88V174.16H38.84V202ZM43.3081 190.88C43.3081 188.667 43.7615 186.707 44.6681 185C45.6015 183.293 46.8548 181.973 48.4281 181.04C50.0281 180.08 51.7881 179.6 53.7081 179.6C55.4415 179.6 56.9481 179.947 58.2281 180.64C59.5348 181.307 60.5748 182.147 61.3481 183.16V179.96H65.9481V202H61.3481V198.72C60.5748 199.76 59.5215 200.627 58.1881 201.32C56.8548 202.013 55.3348 202.36 53.6281 202.36C51.7348 202.36 50.0015 201.88 48.4281 200.92C46.8548 199.933 45.6015 198.573 44.6681 196.84C43.7615 195.08 43.3081 193.093 43.3081 190.88ZM61.3481 190.96C61.3481 189.44 61.0281 188.12 60.3881 187C59.7748 185.88 58.9615 185.027 57.9481 184.44C56.9348 183.853 55.8415 183.56 54.6681 183.56C53.4948 183.56 52.4015 183.853 51.3881 184.44C50.3748 185 49.5481 185.84 48.9081 186.96C48.2948 188.053 47.9881 189.36 47.9881 190.88C47.9881 192.4 48.2948 193.733 48.9081 194.88C49.5481 196.027 50.3748 196.907 51.3881 197.52C52.4281 198.107 53.5215 198.4 54.6681 198.4C55.8415 198.4 56.9348 198.107 57.9481 197.52C58.9615 196.933 59.7748 196.08 60.3881 194.96C61.0281 193.813 61.3481 192.48 61.3481 190.96ZM77.2575 183.68V195.88C77.2575 196.707 77.4442 197.307 77.8175 197.68C78.2175 198.027 78.8842 198.2 79.8175 198.2H82.6175V202H79.0175C76.9642 202 75.3908 201.52 74.2975 200.56C73.2042 199.6 72.6575 198.04 72.6575 195.88V183.68H70.0575V179.96H72.6575V174.48H77.2575V179.96H82.6175V183.68H77.2575ZM106.78 179.96V202H102.22V199.4C101.5 200.307 100.554 201.027 99.3803 201.56C98.2336 202.067 97.007 202.32 95.7003 202.32C93.967 202.32 92.407 201.96 91.0203 201.24C89.6603 200.52 88.5803 199.453 87.7803 198.04C87.007 196.627 86.6203 194.92 86.6203 192.92V179.96H91.1403V192.24C91.1403 194.213 91.6336 195.733 92.6203 196.8C93.607 197.84 94.9536 198.36 96.6603 198.36C98.367 198.36 99.7136 197.84 100.7 196.8C101.714 195.733 102.22 194.213 102.22 192.24V179.96H106.78ZM117.357 183.16C118.024 182.04 118.904 181.173 119.997 180.56C121.117 179.92 122.437 179.6 123.957 179.6V184.32H122.797C121.01 184.32 119.65 184.773 118.717 185.68C117.81 186.587 117.357 188.16 117.357 190.4V202H112.797V179.96H117.357V183.16ZM126.628 190.88C126.628 188.667 127.082 186.707 127.988 185C128.922 183.293 130.175 181.973 131.748 181.04C133.348 180.08 135.108 179.6 137.028 179.6C138.762 179.6 140.268 179.947 141.548 180.64C142.855 181.307 143.895 182.147 144.668 183.16V179.96H149.268V202H144.668V198.72C143.895 199.76 142.842 200.627 141.508 201.32C140.175 202.013 138.655 202.36 136.948 202.36C135.055 202.36 133.322 201.88 131.748 200.92C130.175 199.933 128.922 198.573 127.988 196.84C127.082 195.08 126.628 193.093 126.628 190.88ZM144.668 190.96C144.668 189.44 144.348 188.12 143.708 187C143.095 185.88 142.282 185.027 141.268 184.44C140.255 183.853 139.162 183.56 137.988 183.56C136.815 183.56 135.722 183.853 134.708 184.44C133.695 185 132.868 185.84 132.228 186.96C131.615 188.053 131.308 189.36 131.308 190.88C131.308 192.4 131.615 193.733 132.228 194.88C132.868 196.027 133.695 196.907 134.708 197.52C135.748 198.107 136.842 198.4 137.988 198.4C139.162 198.4 140.255 198.107 141.268 197.52C142.282 196.933 143.095 196.08 143.708 194.96C144.348 193.813 144.668 192.48 144.668 190.96ZM159.818 172.4V202H155.258V172.4H159.818ZM185.355 202.28C183.489 202.28 181.809 201.96 180.315 201.32C178.822 200.653 177.649 199.72 176.795 198.52C175.942 197.32 175.515 195.92 175.515 194.32H180.395C180.502 195.52 180.969 196.507 181.795 197.28C182.649 198.053 183.835 198.44 185.355 198.44C186.929 198.44 188.155 198.067 189.035 197.32C189.915 196.547 190.355 195.56 190.355 194.36C190.355 193.427 190.075 192.667 189.515 192.08C188.982 191.493 188.302 191.04 187.475 190.72C186.675 190.4 185.555 190.053 184.115 189.68C182.302 189.2 180.822 188.72 179.675 188.24C178.555 187.733 177.595 186.96 176.795 185.92C175.995 184.88 175.595 183.493 175.595 181.76C175.595 180.16 175.995 178.76 176.795 177.56C177.595 176.36 178.715 175.44 180.155 174.8C181.595 174.16 183.262 173.84 185.155 173.84C187.849 173.84 190.049 174.52 191.755 175.88C193.489 177.213 194.449 179.053 194.635 181.4H189.595C189.515 180.387 189.035 179.52 188.155 178.8C187.275 178.08 186.115 177.72 184.675 177.72C183.369 177.72 182.302 178.053 181.475 178.72C180.649 179.387 180.235 180.347 180.235 181.6C180.235 182.453 180.489 183.16 180.995 183.72C181.529 184.253 182.195 184.68 182.995 185C183.795 185.32 184.889 185.667 186.275 186.04C188.115 186.547 189.609 187.053 190.755 187.56C191.929 188.067 192.915 188.853 193.715 189.92C194.542 190.96 194.955 192.36 194.955 194.12C194.955 195.533 194.569 196.867 193.795 198.12C193.049 199.373 191.942 200.387 190.475 201.16C189.035 201.907 187.329 202.28 185.355 202.28ZM209.056 191L219.216 202H213.056L204.896 192.52V202H200.336V172.4H204.896V189.6L212.896 179.96H219.216L209.056 191ZM224.804 177.04C223.978 177.04 223.284 176.76 222.724 176.2C222.164 175.64 221.884 174.947 221.884 174.12C221.884 173.293 222.164 172.6 222.724 172.04C223.284 171.48 223.978 171.2 224.804 171.2C225.604 171.2 226.284 171.48 226.844 172.04C227.404 172.6 227.684 173.293 227.684 174.12C227.684 174.947 227.404 175.64 226.844 176.2C226.284 176.76 225.604 177.04 224.804 177.04ZM227.044 179.96V202H222.484V179.96H227.044ZM244.151 179.6C245.885 179.6 247.431 179.96 248.791 180.68C250.178 181.4 251.258 182.467 252.031 183.88C252.805 185.293 253.191 187 253.191 189V202H248.671V189.68C248.671 187.707 248.178 186.2 247.191 185.16C246.205 184.093 244.858 183.56 243.151 183.56C241.445 183.56 240.085 184.093 239.071 185.16C238.085 186.2 237.591 187.707 237.591 189.68V202H233.031V179.96H237.591V182.48C238.338 181.573 239.285 180.867 240.431 180.36C241.605 179.853 242.845 179.6 244.151 179.6Z" fill="#EBE5D8"/>
</svg>
